<svg width="100" height="100" version="1.1" xmlns="http://www.w3.org/2000/svg">
   <g id="Elements" fill="#fcff5e" stroke="black" stroke-width="0.9476656233969146">
      <path d="M 5.00000000e+01 1.69999970e+01 Q 4.94348469e+01 1.92120639e+01, 4.87340032e+01 2.14158288e+01 Q 4.78974691e+01 2.36112918e+01, 4.69252444e+01 2.57984528e+01 Q 4.58173292e+01 2.79773119e+01, 4.45737235e+01 3.01478691e+01 Q 4.31944272e+01 3.23101243e+01, 4.16794405e+01 3.44640775e+01 Q 4.00287632e+01 3.66097288e+01, 3.82423954e+01 3.87470781e+01 Q 3.63203371e+01 4.08761255e+01, 3.42625882e+01 4.29968710e+01 Q 3.20691489e+01 4.51093145e+01, 2.97400190e+01 4.72134560e+01 Q 3.32541849e+01 4.74444824e+01, 3.67400216e+01 4.76705877e+01 Q 4.01975291e+01 4.78917718e+01, 4.36267075e+01 4.81080347e+01 Q 4.70275567e+01 4.83193765e+01, 5.04000768e+01 4.85257971e+01 Q 5.37442677e+01 4.87272965e+01, 5.70601295e+01 4.89238748e+01 Q 6.03476622e+01 4.91155319e+01, 6.36068656e+01 4.93022678e+01 Q 6.68377400e+01 4.94840826e+01, 7.00402851e+01 4.96609762e+01 Q 7.32145011e+01 4.98329487e+01, 7.63603880e+01 5.00000000e+01 Q 7.43681308e+01 4.77281350e+01, 7.23927002e+01 4.54431503e+01 Q 7.04340960e+01 4.31450459e+01, 6.84923184e+01 4.08338218e+01 Q 6.65673672e+01 3.85094780e+01, 6.46592426e+01 3.61720145e+01 Q 6.27679445e+01 3.38214313e+01, 6.08934729e+01 3.14577283e+01 Q 5.90358278e+01 2.90809057e+01, 5.71950092e+01 2.66909634e+01 Q 5.53710172e+01 2.42879013e+01, 5.35638516e+01 2.18717196e+01 Q 5.17735125e+01 1.94424181e+01, 5.00000000e+01 1.69999970e+01 Z" />
      <path d="M 5.00000000e+00 5.00000000e+00 Q 9.29610817e+00 8.34278716e+00, 1.32031450e+01 1.16351835e+01 Q 1.67211104e+01 1.48771890e+01, 1.98500044e+01 1.80688038e+01 Q 2.25898271e+01 2.12100277e+01, 2.49405783e+01 2.43008607e+01 Q 2.69022582e+01 2.73413030e+01, 2.84748668e+01 3.03313544e+01 Q 2.96584039e+01 3.32710151e+01, 3.04528697e+01 3.61602849e+01 Q 3.08582641e+01 3.89991639e+01, 3.08745871e+01 4.17876521e+01 Q 3.05018387e+01 4.45257494e+01, 2.97400190e+01 4.72134560e+01 Q 3.20691489e+01 4.51093145e+01, 3.42625882e+01 4.29968710e+01 Q 3.63203371e+01 4.08761255e+01, 3.82423954e+01 3.87470781e+01 Q 4.00287632e+01 3.66097288e+01, 4.16794405e+01 3.44640775e+01 Q 4.31944273e+01 3.23101243e+01, 4.45737235e+01 3.01478691e+01 Q 4.58173292e+01 2.79773119e+01, 4.69252444e+01 2.57984528e+01 Q 4.78974691e+01 2.36112918e+01, 4.87340032e+01 2.14158288e+01 Q 4.94348469e+01 1.92120639e+01, 5.00000000e+01 1.69999970e+01 Q 4.57908167e+01 1.69387725e+01, 4.17346946e+01 1.67550991e+01 Q 3.78316337e+01 1.64489767e+01, 3.40816339e+01 1.60204054e+01 Q 3.04846953e+01 1.54693851e+01, 2.70408178e+01 1.47959159e+01 Q 2.37500015e+01 1.39999978e+01, 2.06122464e+01 1.30816306e+01 Q 1.76275524e+01 1.20408146e+01, 1.47959196e+01 1.08775496e+01 Q 1.21173479e+01 9.59183559e+00, 9.59183747e+00 8.18367267e+00 Q 7.21938815e+00 6.65306081e+00, 5.00000000e+00 5.00000000e+00 Z" />
      <path d="M 9.50000000e+01 5.00000000e+00 Q 9.27806118e+01 6.65306081e+00, 9.04081625e+01 8.18367267e+00 Q 8.78826521e+01 9.59183559e+00, 8.52040804e+01 1.08775496e+01 Q 8.23724476e+01 1.20408146e+01, 7.93877536e+01 1.30816306e+01 Q 7.62499985e+01 1.39999978e+01, 7.29591822e+01 1.47959159e+01 Q 6.95153047e+01 1.54693851e+01, 6.59183661e+01 1.60204054e+01 Q 6.21683663e+01 1.64489767e+01, 5.82653054e+01 1.67550991e+01 Q 5.42091833e+01 1.69387725e+01, 5.00000000e+01 1.69999970e+01 Q 5.17735125e+01 1.94424181e+01, 5.35638516e+01 2.18717196e+01 Q 5.53710172e+01 2.42879013e+01, 5.71950092e+01 2.66909634e+01 Q 5.90358278e+01 2.90809057e+01, 6.08934729e+01 3.14577283e+01 Q 6.27679445e+01 3.38214313e+01, 6.46592426e+01 3.61720145e+01 Q 6.65673672e+01 3.85094780e+01, 6.84923184e+01 4.08338218e+01 Q 7.04340960e+01 4.31450459e+01, 7.23927002e+01 4.54431503e+01 Q 7.43681308e+01 4.77281350e+01, 7.63603880e+01 5.00000000e+01 Q 7.64554881e+01 4.62736220e+01, 7.67407882e+01 4.26260274e+01 Q 7.72162886e+01 3.90572163e+01, 7.78819890e+01 3.55671886e+01 Q 7.87378895e+01 3.21559443e+01, 7.97839902e+01 2.88234834e+01 Q 8.10202910e+01 2.55698060e+01, 8.24467919e+01 2.23949120e+01 Q 8.40634930e+01 1.92988014e+01, 8.58703941e+01 1.62814743e+01 Q 8.78674954e+01 1.33429306e+01, 9.00547968e+01 1.04831703e+01 Q 9.24322983e+01 7.70219343e+00, 9.50000000e+01 5.00000000e+00 Z" />
      <path d="M 5.00000000e+00 9.50000000e+01 L 5.00000000e+01 9.50000000e+01 Q 4.95941606e+01 9.34311954e+01, 4.92049536e+01 9.18558583e+01 Q 4.88323789e+01 9.02739887e+01, 4.84764367e+01 8.86855868e+01 Q 4.81371267e+01 8.70906524e+01, 4.78144492e+01 8.54891855e+01 Q 4.75084040e+01 8.38811862e+01, 4.72189912e+01 8.22666545e+01 Q 4.69462107e+01 8.06455904e+01, 4.66900627e+01 7.90179938e+01 Q 4.64505469e+01 7.73838647e+01, 4.62276636e+01 7.57432033e+01 Q 4.60214126e+01 7.40960094e+01, 4.58317940e+01 7.24422830e+01 Q 4.30642117e+01 7.36912073e+01, 4.02737103e+01 7.49958763e+01 Q 3.74602897e+01 7.63562902e+01, 3.46239500e+01 7.77724489e+01 Q 3.17646911e+01 7.92443524e+01, 2.88825131e+01 8.07720007e+01 Q 2.59774160e+01 8.23553938e+01, 2.30493997e+01 8.39945317e+01 Q 2.00984643e+01 8.56894144e+01, 1.71246097e+01 8.74400419e+01 Q 1.41278360e+01 8.92464142e+01, 1.11081431e+01 9.11085313e+01 Q 8.06553114e+00 9.30263933e+01, 5.00000000e+00 9.50000000e+01 Z" />
      <path d="M 5.00000000e+01 9.50000000e+01 L 9.50000000e+01 9.50000000e+01 Q 9.25728110e+01 9.39762139e+01, 9.01878947e+01 9.29301725e+01 Q 8.78452510e+01 9.18618760e+01, 8.55448799e+01 9.07713243e+01 Q 8.32867815e+01 8.96585174e+01, 8.10709557e+01 8.85234552e+01 Q 7.88974025e+01 8.73661379e+01, 7.67661220e+01 8.61865654e+01 Q 7.46771141e+01 8.49847376e+01, 7.26303788e+01 8.37606547e+01 Q 7.06259161e+01 8.25143166e+01, 6.86637261e+01 8.12457233e+01 Q 6.67438087e+01 7.99548747e+01, 6.48661640e+01 7.86417710e+01 Q 6.38717791e+01 7.97903475e+01, 6.28670120e+01 8.09419808e+01 Q 6.18518628e+01 8.20966706e+01, 6.08263314e+01 8.32544172e+01 Q 5.97904179e+01 8.44152204e+01, 5.87441223e+01 8.55790804e+01 Q 5.76874445e+01 8.67459969e+01, 5.66203846e+01 8.79159702e+01 Q 5.55429425e+01 8.90890002e+01, 5.44551183e+01 9.02650868e+01 Q 5.33569119e+01 9.14442301e+01, 5.22483234e+01 9.26264300e+01 Q 5.11293528e+01 9.38116867e+01, 5.00000000e+01 9.50000000e+01 Z" />
      <path d="M 5.00000000e+01 9.50000000e+01 Q 5.11293528e+01 9.38116867e+01, 5.22483234e+01 9.26264300e+01 Q 5.33569119e+01 9.14442301e+01, 5.44551183e+01 9.02650868e+01 Q 5.55429425e+01 8.90890002e+01, 5.66203846e+01 8.79159702e+01 Q 5.76874445e+01 8.67459969e+01, 5.87441223e+01 8.55790804e+01 Q 5.97904179e+01 8.44152204e+01, 6.08263314e+01 8.32544172e+01 Q 6.18518628e+01 8.20966706e+01, 6.28670120e+01 8.09419808e+01 Q 6.38717791e+01 7.97903475e+01, 6.48661640e+01 7.86417710e+01 Q 6.35087641e+01 7.82141986e+01, 6.21510260e+01 7.77842804e+01 Q 6.07929498e+01 7.73520163e+01, 5.94345354e+01 7.69174063e+01 Q 5.80757829e+01 7.64804504e+01, 5.67166923e+01 7.60411486e+01 Q 5.53572635e+01 7.55995010e+01, 5.39974966e+01 7.51555075e+01 Q 5.26373915e+01 7.47091681e+01, 5.12769483e+01 7.42604828e+01 Q 4.99161669e+01 7.38094517e+01, 4.85550474e+01 7.33560747e+01 Q 4.71935898e+01 7.29003518e+01, 4.58317940e+01 7.24422830e+01 Q 4.60214126e+01 7.40960094e+01, 4.62276636e+01 7.57432033e+01 Q 4.64505469e+01 7.73838647e+01, 4.66900627e+01 7.90179938e+01 Q 4.69462107e+01 8.06455904e+01, 4.72189912e+01 8.22666545e+01 Q 4.75084040e+01 8.38811862e+01, 4.78144492e+01 8.54891855e+01 Q 4.81371267e+01 8.70906524e+01, 4.84764367e+01 8.86855868e+01 Q 4.88323789e+01 9.02739887e+01, 4.92049536e+01 9.18558583e+01 Q 4.95941606e+01 9.34311954e+01, 5.00000000e+01 9.50000000e+01 Z" />
      <path d="M 4.58317940e+01 7.24422830e+01 Q 4.78303821e+01 7.09127740e+01, 4.98569742e+01 6.93719556e+01 Q 5.19115702e+01 6.78198278e+01, 5.39941702e+01 6.62563905e+01 Q 5.61047742e+01 6.46816438e+01, 5.82433821e+01 6.30955878e+01 Q 6.04099940e+01 6.14982222e+01, 6.26046098e+01 5.98895473e+01 Q 6.48272296e+01 5.82695630e+01, 6.70778534e+01 5.66382692e+01 Q 6.93564811e+01 5.49956660e+01, 7.16631128e+01 5.33417534e+01 Q 7.39977484e+01 5.16765314e+01, 7.63603880e+01 5.00000000e+01 Q 7.32145011e+01 4.98329487e+01, 7.00402851e+01 4.96609762e+01 Q 6.68377400e+01 4.94840826e+01, 6.36068656e+01 4.93022678e+01 Q 6.03476622e+01 4.91155319e+01, 5.70601295e+01 4.89238748e+01 Q 5.37442677e+01 4.87272965e+01, 5.04000768e+01 4.85257971e+01 Q 4.70275567e+01 4.83193765e+01, 4.36267075e+01 4.81080347e+01 Q 4.01975291e+01 4.78917718e+01, 3.67400216e+01 4.76705877e+01 Q 3.32541849e+01 4.74444824e+01, 2.97400190e+01 4.72134560e+01 Q 3.12150240e+01 4.88392002e+01, 3.26399378e+01 5.04920699e+01 Q 3.40147605e+01 5.21720648e+01, 3.53394921e+01 5.38791851e+01 Q 3.66141324e+01 5.56134308e+01, 3.78386817e+01 5.73748019e+01 Q 3.90131398e+01 5.91632982e+01, 4.01375067e+01 6.09789200e+01 Q 4.12117824e+01 6.28216671e+01, 4.22359671e+01 6.46915396e+01 Q 4.32100605e+01 6.65885374e+01, 4.41340628e+01 6.85126606e+01 Q 4.50079740e+01 7.04639091e+01, 4.58317940e+01 7.24422830e+01 Z" />
      <path d="M 2.97400190e+01 4.72134560e+01 Q 2.90375873e+01 4.90614400e+01, 2.81713537e+01 5.11502456e+01 Q 2.71413182e+01 5.34798728e+01, 2.59474807e+01 5.60503216e+01 Q 2.45898413e+01 5.88615921e+01, 2.30684000e+01 6.19136842e+01 Q 2.13831568e+01 6.52065980e+01, 1.95341116e+01 6.87403334e+01 Q 1.75212645e+01 7.25148904e+01, 1.53446154e+01 7.65302691e+01 Q 1.30041645e+01 8.07864693e+01, 1.04999116e+01 8.52834913e+01 Q 7.83185675e+00 9.00213348e+01, 5.00000000e+00 9.50000000e+01 Q 8.06553114e+00 9.30263933e+01, 1.11081431e+01 9.11085313e+01 Q 1.41278360e+01 8.92464142e+01, 1.71246097e+01 8.74400419e+01 Q 2.00984643e+01 8.56894144e+01, 2.30493997e+01 8.39945317e+01 Q 2.59774160e+01 8.23553937e+01, 2.88825131e+01 8.07720007e+01 Q 3.17646911e+01 7.92443524e+01, 3.46239500e+01 7.77724489e+01 Q 3.74602897e+01 7.63562902e+01, 4.02737103e+01 7.49958763e+01 Q 4.30642117e+01 7.36912073e+01, 4.58317940e+01 7.24422830e+01 Q 4.50079740e+01 7.04639091e+01, 4.41340628e+01 6.85126606e+01 Q 4.32100605e+01 6.65885374e+01, 4.22359671e+01 6.46915396e+01 Q 4.12117824e+01 6.28216671e+01, 4.01375067e+01 6.09789200e+01 Q 3.90131398e+01 5.91632982e+01, 3.78386817e+01 5.73748019e+01 Q 3.66141324e+01 5.56134308e+01, 3.53394921e+01 5.38791851e+01 Q 3.40147605e+01 5.21720648e+01, 3.26399378e+01 5.04920699e+01 Q 3.12150240e+01 4.88392002e+01, 2.97400190e+01 4.72134560e+01 Z" />
      <path d="M 9.50000000e+01 9.50000000e+01 Q 9.24322983e+01 9.22978066e+01, 9.00547968e+01 8.95168297e+01 Q 8.78674954e+01 8.66570694e+01, 8.58703941e+01 8.37185257e+01 Q 8.40634930e+01 8.07011986e+01, 8.24467919e+01 7.76050880e+01 Q 8.10202910e+01 7.44301940e+01, 7.97839902e+01 7.11765166e+01 Q 7.87378895e+01 6.78440557e+01, 7.78819890e+01 6.44328114e+01 Q 7.72162886e+01 6.09427837e+01, 7.67407882e+01 5.73739726e+01 Q 7.64554881e+01 5.37263780e+01, 7.63603880e+01 5.00000000e+01 Q 7.52672945e+01 5.20970528e+01, 7.42160590e+01 5.41862268e+01 Q 7.32066817e+01 5.62675220e+01, 7.22391624e+01 5.83409384e+01 Q 7.13135012e+01 6.04064761e+01, 7.04296980e+01 6.24641351e+01 Q 6.95877530e+01 6.45139152e+01, 6.87876660e+01 6.65558167e+01 Q 6.80294372e+01 6.85898393e+01, 6.73130664e+01 7.06159832e+01 Q 6.66385537e+01 7.26342483e+01, 6.60058990e+01 7.46446346e+01 Q 6.54151025e+01 7.66471422e+01, 6.48661640e+01 7.86417710e+01 Q 6.67438087e+01 7.99548747e+01, 6.86637261e+01 8.12457233e+01 Q 7.06259161e+01 8.25143166e+01, 7.26303788e+01 8.37606547e+01 Q 7.46771141e+01 8.49847376e+01, 7.67661220e+01 8.61865654e+01 Q 7.88974025e+01 8.73661379e+01, 8.10709557e+01 8.85234552e+01 Q 8.32867815e+01 8.96585174e+01, 8.55448799e+01 9.07713243e+01 Q 8.78452510e+01 9.18618760e+01, 9.01878947e+01 9.29301725e+01 Q 9.25728110e+01 9.39762139e+01, 9.50000000e+01 9.50000000e+01 Z" />
      <path d="M 6.48661640e+01 7.86417710e+01 Q 6.54151025e+01 7.66471422e+01, 6.60058990e+01 7.46446346e+01 Q 6.66385537e+01 7.26342483e+01, 6.73130664e+01 7.06159832e+01 Q 6.80294372e+01 6.85898393e+01, 6.87876660e+01 6.65558167e+01 Q 6.95877530e+01 6.45139152e+01, 7.04296980e+01 6.24641351e+01 Q 7.13135012e+01 6.04064761e+01, 7.22391624e+01 5.83409384e+01 Q 7.32066817e+01 5.62675220e+01, 7.42160590e+01 5.41862268e+01 Q 7.52672945e+01 5.20970528e+01, 7.63603880e+01 5.00000000e+01 Q 7.39977484e+01 5.16765314e+01, 7.16631128e+01 5.33417534e+01 Q 6.93564811e+01 5.49956660e+01, 6.70778534e+01 5.66382692e+01 Q 6.48272296e+01 5.82695630e+01, 6.26046098e+01 5.98895473e+01 Q 6.04099940e+01 6.14982222e+01, 5.82433821e+01 6.30955878e+01 Q 5.61047742e+01 6.46816438e+01, 5.39941702e+01 6.62563905e+01 Q 5.19115702e+01 6.78198278e+01, 4.98569742e+01 6.93719556e+01 Q 4.78303821e+01 7.09127740e+01, 4.58317940e+01 7.24422830e+01 Q 4.71935898e+01 7.29003518e+01, 4.85550474e+01 7.33560747e+01 Q 4.99161669e+01 7.38094517e+01, 5.12769483e+01 7.42604828e+01 Q 5.26373915e+01 7.47091681e+01, 5.39974966e+01 7.51555075e+01 Q 5.53572635e+01 7.55995010e+01, 5.67166923e+01 7.60411486e+01 Q 5.80757829e+01 7.64804504e+01, 5.94345354e+01 7.69174063e+01 Q 6.07929498e+01 7.73520163e+01, 6.21510260e+01 7.77842804e+01 Q 6.35087641e+01 7.82141986e+01, 6.48661640e+01 7.86417710e+01 Z" />
   </g>
   <g id="Nodes" fill="#a95e5e">
      <circle cx="2.00000030e+01" cy="1.69999970e+01" r="1.8953312467938292" />
      <circle cx="5.00000000e+01" cy="1.69999970e+01" r="1.8953312467938292" />
      <circle cx="7.99999970e+01" cy="1.69999970e+01" r="1.8953312467938292" />
      <circle cx="7.25000000e+01" cy="9.50000000e+01" r="1.8953312467938292" />
      <circle cx="5.00000000e+01" cy="9.50000000e+01" r="1.8953312467938292" />
      <circle cx="2.75000000e+01" cy="9.50000000e+01" r="1.8953312467938292" />
      <circle cx="2.53963040e+01" cy="5.93064680e+01" r="1.8953312467938292" />
      <circle cx="2.97400190e+01" cy="4.72134560e+01" r="1.8953312467938292" />
      <circle cx="3.64345070e+01" cy="2.85758780e+01" r="1.8953312467938292" />
      <circle cx="7.63603880e+01" cy="2.36396120e+01" r="1.8953312467938292" />
      <circle cx="7.63603880e+01" cy="5.00000000e+01" r="1.8953312467938292" />
      <circle cx="7.63603880e+01" cy="7.63603880e+01" r="1.8953312467938292" />
      <circle cx="5.00000000e+00" cy="9.50000000e+01" r="1.8953312467938292" />
      <circle cx="9.50000000e+01" cy="9.50000000e+01" r="1.8953312467938292" />
      <circle cx="9.50000000e+01" cy="5.00000000e+00" r="1.8953312467938292" />
      <circle cx="5.00000000e+00" cy="5.00000000e+00" r="1.8953312467938292" />
      <circle cx="5.79418070e+01" cy="8.66711084e+01" r="1.8953312467938292" />
      <circle cx="4.58317940e+01" cy="7.24422830e+01" r="1.8953312467938292" />
      <circle cx="6.23556950e+01" cy="3.41428640e+01" r="1.8953312467938292" />
      <circle cx="4.02403730e+01" cy="5.84987270e+01" r="1.8953312467938292" />
      <circle cx="2.65389350e+01" cy="8.09896460e+01" r="1.8953312467938292" />
      <circle cx="4.71009110e+01" cy="8.40412310e+01" r="1.8953312467938292" />
      <circle cx="7.78617230e+01" cy="8.79113903e+01" r="1.8953312467938292" />
      <circle cx="5.44383320e+01" cy="4.88478650e+01" r="1.8953312467938292" />
      <circle cx="6.48661640e+01" cy="7.86417710e+01" r="1.8953312467938292" />
      <circle cx="6.85622300e+01" cy="6.47069450e+01" r="1.8953312467938292" />
      <circle cx="5.53655480e+01" cy="7.56569750e+01" r="1.8953312467938292" />
      <circle cx="4.65188450e+01" cy="3.25135220e+01" r="1.8953312467938292" />
      <circle cx="5.97238970e+01" cy="6.17753030e+01" r="1.8953312467938292" />
   </g>
</svg>