<svg width="100" height="100" version="1.1" xmlns="http://www.w3.org/2000/svg">
   <g id="Elements" fill="#fcff5e" stroke="black" stroke-width="0.5347948449258374">
      <path d="M 2.97400190e+01 4.72134560e+01 Q 2.85659809e+01 5.02583155e+01, 2.70222345e+01 5.38385061e+01 Q 2.50346201e+01 5.80802101e+01, 2.25169357e+01 6.31292124e+01 Q 1.93709378e+01 6.91509007e+01, 1.54863411e+01 7.63302655e+01 Q 1.07408182e+01 8.48719000e+01, 5.00000000e+00 9.50000000e+01 Q 1.09262339e+01 9.06281426e+01, 1.63940474e+01 8.71629729e+01 Q 2.15575687e+01 8.43020101e+01, 2.65365703e+01 8.17996364e+01 Q 3.14164690e+01 7.94670975e+01, 3.62483264e+01 7.71725021e+01 Q 4.10488480e+01 7.48408222e+01, 4.58003840e+01 7.24538930e+01 Q 4.24165075e+01 6.41784463e+01, 4.05697799e+01 6.00373951e+01 Q 3.97478814e+01 5.86431704e+01, 3.93907837e+01 5.86496879e+01 Q 3.88907492e+01 5.87523481e+01, 3.75923318e+01 5.76880357e+01 Q 3.47923764e+01 5.42351203e+01, 2.97400190e+01 4.72134560e+01 Z" />
      <path d="M 5.00000000e+00 9.50000000e+01 L 5.00000000e+01 9.50000000e+01 Q 4.93328253e+01 9.22579174e+01, 4.87085169e+01 8.94891862e+01 Q 4.81286729e+01 8.66945251e+01, 4.75927205e+01 8.38760307e+01 Q 4.70979157e+01 8.10371780e+01, 4.66393437e+01 7.81828201e+01 Q 4.62099188e+01 7.53191886e+01, 4.58003840e+01 7.24538930e+01 Q 3.48327089e+01 7.74175330e+01, 2.91441674e+01 8.01173145e+01 Q 2.69763697e+01 8.13076053e+01, 2.65365703e+01 8.17996364e+01 Q 2.59976680e+01 8.24615024e+01, 2.34982064e+01 8.42181606e+01 Q 1.71423730e+01 8.80514318e+01, 5.00000000e+00 9.50000000e+01 Z" />
      <path d="M 9.50000000e+01 9.50000000e+01 Q 9.09089830e+01 9.05058689e+01, 8.72469038e+01 8.56251427e+01 Q 8.40534701e+01 8.03867950e+01, 8.13663129e+01 7.48220162e+01 Q 7.92209865e+01 6.89642140e+01, 7.76509688e+01 6.28490131e+01 Q 7.66876611e+01 5.65142554e+01, 7.63603880e+01 5.00000000e+01 Q 7.41534300e+01 5.38005122e+01, 7.23536736e+01 5.75217762e+01 Q 7.08426774e+01 6.11731863e+01, 6.95251276e+01 6.47639836e+01 Q 6.83288375e+01 6.83032564e+01, 6.72047477e+01 7.17999399e+01 Q 6.61269261e+01 7.52628160e+01, 6.50925680e+01 7.87005140e+01 Q 7.32371435e+01 8.37534210e+01, 7.73350294e+01 8.63781782e+01 Q 7.87855687e+01 8.73579252e+01, 7.89837462e+01 8.74759248e+01 Q 7.93201888e+01 8.75155625e+01, 8.11811647e+01 8.82603464e+01 Q 8.59485844e+01 9.04939076e+01, 9.50000000e+01 9.50000000e+01 Z" />
      <path d="M 5.00000000e+01 9.50000000e+01 L 9.50000000e+01 9.50000000e+01 Q 9.07610294e+01 9.33039011e+01, 8.66811019e+01 9.14717675e+01 Q 8.27576495e+01 8.95227007e+01, 7.89837462e+01 8.74759248e+01 Q 7.53481080e+01 8.53507870e+01, 7.18350922e+01 8.31667570e+01 Q 6.84246985e+01 8.09434275e+01, 6.50925680e+01 7.87005140e+01 Q 6.08177225e+01 8.33719861e+01, 5.86417366e+01 8.57680443e+01 Q 5.78555702e+01 8.66494233e+01, 5.77508169e+01 8.67774029e+01 Q 5.76197045e+01 8.69138078e+01, 5.67550948e+01 8.78210081e+01 Q 5.44504834e+01 9.02619188e+01, 5.00000000e+01 9.50000000e+01 Z" />
      <path d="M 9.50000000e+01 5.00000000e+00 Q 9.14406218e+01 7.48761462e+00, 8.72087930e+01 9.77737539e+00 Q 8.23365637e+01 1.18251388e+01, 7.68632529e+01 1.35883473e+01 Q 7.08354489e+01 1.50260296e+01, 6.43070094e+01 1.60988005e+01 Q 5.73390611e+01 1.67688606e+01, 5.00000000e+01 1.69999970e+01 Q 5.39076255e+01 2.13921583e+01, 5.72348481e+01 2.56616871e+01 Q 6.01836620e+01 2.98319910e+01, 6.29566183e+01 3.39262717e+01 Q 6.57568251e+01 3.79675254e+01, 6.87879479e+01 4.19785425e+01 Q 7.22542090e+01 4.59819077e+01, 7.63603880e+01 5.00000000e+01 Q 7.99873353e+01 3.58613192e+01, 8.14220251e+01 2.84373580e+01 Q 8.15778966e+01 2.55897681e+01, 8.13663129e+01 2.51779843e+01 Q 8.16965600e+01 2.50592238e+01, 8.34758476e+01 2.30884870e+01 Q 8.76093087e+01 1.71185571e+01, 9.50000000e+01 5.00000000e+00 Z" />
      <path d="M 5.00000000e+00 5.00000000e+00 Q 1.46302799e+01 1.25512852e+01, 2.16733711e+01 1.88220013e+01 Q 2.65663174e+01 2.41595480e+01, 2.96842286e+01 2.88856783e+01 Q 3.13402800e+01 3.32964983e+01, 3.17857131e+01 3.76624674e+01 Q 3.12098351e+01 4.22283981e+01, 2.97400190e+01 4.72134560e+01 Q 3.44590425e+01 4.39326772e+01, 3.81129900e+01 4.03599003e+01 Q 4.09284587e+01 3.66110393e+01, 4.31269098e+01 3.27694016e+01 Q 4.49246685e+01 2.88856877e+01, 4.65329237e+01 2.49779919e+01 Q 4.81577286e+01 2.10318014e+01, 5.00000000e+01 1.69999970e+01 Q 3.49265648e+01 1.45188629e+01, 2.68537058e+01 1.35273745e+01 Q 2.36399978e+01 1.34188884e+01, 2.31367465e+01 1.35883473e+01 Q 2.31879882e+01 1.34322800e+01, 2.16304905e+01 1.23488014e+01 Q 1.62937514e+01 9.73761237e+00, 5.00000000e+00 5.00000000e+00 Z" />
      <path d="M 5.00000000e+01 1.69999970e+01 Q 4.81577286e+01 2.10318014e+01, 4.65329237e+01 2.49779919e+01 Q 4.49246685e+01 2.88856877e+01, 4.31269098e+01 3.27694016e+01 Q 4.09284587e+01 3.66110393e+01, 3.81129900e+01 4.03599003e+01 Q 3.44590425e+01 4.39326772e+01, 2.97400190e+01 4.72134560e+01 Q 3.70323805e+01 4.74388567e+01, 4.31911157e+01 4.78748741e+01 Q 4.86703142e+01 4.83955181e+01, 5.38468368e+01 4.89053919e+01 Q 5.90203161e+01 4.93396914e+01, 6.44131556e+01 4.96642057e+01 Q 7.01705308e+01 4.98753169e+01, 7.63603880e+01 5.00000000e+01 Q 6.93531653e+01 4.07280976e+01, 6.54724694e+01 3.59741880e+01 Q 6.36846510e+01 3.42148039e+01, 6.29566182e+01 3.39262717e+01 Q 6.22558361e+01 3.35847125e+01, 6.05503266e+01 3.16660416e+01 Q 5.68086692e+01 2.66459685e+01, 5.00000000e+01 1.69999970e+01 Z" />
      <path d="M 4.58003840e+01 7.24538930e+01 Q 4.94718398e+01 6.98205245e+01, 5.31432378e+01 6.71658679e+01 Q 5.67748452e+01 6.44730989e+01, 6.03757153e+01 6.17275541e+01 Q 6.40036868e+01 5.89167317e+01, 6.77653848e+01 5.60302911e+01 Q 7.18162197e+01 5.30600532e+01, 7.63603880e+01 5.00000000e+01 Q 7.01705308e+01 4.98753169e+01, 6.44131556e+01 4.96642057e+01 Q 5.90203161e+01 4.93396914e+01, 5.38468368e+01 4.89053919e+01 Q 4.86703142e+01 4.83955181e+01, 4.31911157e+01 4.78748741e+01 Q 3.70323805e+01 4.74388567e+01, 2.97400190e+01 4.72134560e+01 Q 3.47923764e+01 5.42351203e+01, 3.75923318e+01 5.76880357e+01 Q 3.88907492e+01 5.87523481e+01, 3.93907837e+01 5.86496879e+01 Q 3.97478814e+01 5.86431704e+01, 4.05697799e+01 6.00373951e+01 Q 4.24165075e+01 6.41784463e+01, 4.58003840e+01 7.24538930e+01 Z" />
      <path d="M 6.50925680e+01 7.87005140e+01 Q 6.61269261e+01 7.52628160e+01, 6.72047477e+01 7.17999399e+01 Q 6.83288375e+01 6.83032564e+01, 6.95251276e+01 6.47639836e+01 Q 7.08426774e+01 6.11731863e+01, 7.23536736e+01 5.75217762e+01 Q 7.41534300e+01 5.38005122e+01, 7.63603880e+01 5.00000000e+01 Q 7.18162197e+01 5.30600532e+01, 6.77653848e+01 5.60302911e+01 Q 6.40036868e+01 5.89167317e+01, 6.03757153e+01 6.17275541e+01 Q 5.67748452e+01 6.44730989e+01, 5.31432378e+01 6.71658679e+01 Q 4.94718398e+01 6.98205245e+01, 4.58003840e+01 7.24538930e+01 Q 5.13697077e+01 7.42873231e+01, 5.42258791e+01 7.52457131e+01 Q 5.52735489e+01 7.56162548e+01, 5.54180169e+01 7.56861052e+01 Q 5.55652313e+01 7.57423865e+01, 5.66217893e+01 7.60721859e+01 Q 5.94949367e+01 7.69625559e+01, 6.50925680e+01 7.87005140e+01 Z" />
      <path d="M 5.00000000e+01 9.50000000e+01 Q 5.19744210e+01 9.29224662e+01, 5.39253091e+01 9.08616337e+01 Q 5.58510885e+01 8.88141988e+01, 5.77508169e+01 8.67774029e+01 Q 5.96241862e+01 8.47490324e+01, 6.14715223e+01 8.27274187e+01 Q 6.32937849e+01 8.07114387e+01, 6.50925680e+01 7.87005140e+01 Q 6.26737218e+01 7.79474526e+01, 6.02546866e+01 7.71977821e+01 Q 5.78357921e+01 7.64458841e+01, 5.54180169e+01 7.56861052e+01 Q 5.30029881e+01 7.49127571e+01, 5.05929818e+01 7.41201168e+01 Q 4.81909226e+01 7.33024264e+01, 4.58003840e+01 7.24538930e+01 Q 4.68721128e+01 7.90473078e+01, 4.73961369e+01 8.24435278e+01 Q 4.75709114e+01 8.37001203e+01, 4.75927205e+01 8.38760307e+01 Q 4.76556772e+01 8.40315828e+01, 4.79517237e+01 8.52284786e+01 Q 4.86706313e+01 8.85297982e+01, 5.00000000e+01 9.50000000e+01 Z" />
   </g>
   <g id="Nodes" fill="#a95e5e">
      <circle cx="5.00000000e+00" cy="9.50000000e+01" r="1.0695896898516748" />
      <circle cx="9.50000000e+01" cy="9.50000000e+01" r="1.0695896898516748" />
      <circle cx="9.50000000e+01" cy="5.00000000e+00" r="1.0695896898516748" />
      <circle cx="5.00000000e+00" cy="5.00000000e+00" r="1.0695896898516748" />
      <circle cx="1.75725320e+01" cy="7.29980690e+01" r="1.0695896898516748" />
      <circle cx="2.40613160e+01" cy="6.07488350e+01" r="1.0695896898516748" />
      <circle cx="2.77182320e+01" cy="5.28421640e+01" r="1.0695896898516748" />
      <circle cx="2.97400190e+01" cy="4.72134560e+01" r="1.0695896898516748" />
      <circle cx="3.35196410e+01" cy="3.66909260e+01" r="1.0695896898516748" />
      <circle cx="3.29081270e+01" cy="2.94472400e+01" r="1.0695896898516748" />
      <circle cx="2.71700780e+01" cy="2.16275630e+01" r="1.0695896898516748" />
      <circle cx="1.14285713e+01" cy="1.01428610e+01" r="1.0695896898516748" />
      <circle cx="2.15789450e+01" cy="1.44736880e+01" r="1.0695896898516748" />
      <circle cx="3.49999970e+01" cy="1.69999970e+01" r="1.0695896898516748" />
      <circle cx="5.00000000e+01" cy="1.69999970e+01" r="1.0695896898516748" />
      <circle cx="6.50000030e+01" cy="1.69999970e+01" r="1.0695896898516748" />
      <circle cx="7.84210550e+01" cy="1.44736880e+01" r="1.0695896898516748" />
      <circle cx="8.85714260e+01" cy="1.01428610e+01" r="1.0695896898516748" />
      <circle cx="8.64165380e+01" cy="1.35834620e+01" r="1.0695896898516748" />
      <circle cx="7.98988190e+01" cy="2.43724460e+01" r="1.0695896898516748" />
      <circle cx="7.63603880e+01" cy="3.68198060e+01" r="1.0695896898516748" />
      <circle cx="7.63603880e+01" cy="5.00000000e+01" r="1.0695896898516748" />
      <circle cx="7.63603880e+01" cy="6.31801940e+01" r="1.0695896898516748" />
      <circle cx="7.98988190e+01" cy="7.56275540e+01" r="1.0695896898516748" />
      <circle cx="8.64165380e+01" cy="8.64165398e+01" r="1.0695896898516748" />
      <circle cx="8.37500000e+01" cy="9.50000000e+01" r="1.0695896898516748" />
      <circle cx="7.25000000e+01" cy="9.50000000e+01" r="1.0695896898516748" />
      <circle cx="6.12500000e+01" cy="9.50000000e+01" r="1.0695896898516748" />
      <circle cx="5.00000000e+01" cy="9.50000000e+01" r="1.0695896898516748" />
      <circle cx="3.87500000e+01" cy="9.50000000e+01" r="1.0695896898516748" />
      <circle cx="2.75000000e+01" cy="9.50000000e+01" r="1.0695896898516748" />
      <circle cx="1.62500000e+01" cy="9.50000000e+01" r="1.0695896898516748" />
      <circle cx="4.58003840e+01" cy="7.24538930e+01" r="1.0695896898516748" />
      <circle cx="4.26215660e+01" cy="6.55915550e+01" r="1.0695896898516748" />
      <circle cx="1.74308180e+01" cy="8.51195120e+01" r="1.0695896898516748" />
      <circle cx="7.85675840e+01" cy="8.76862274e+01" r="1.0695896898516748" />
      <circle cx="4.59666140e+01" cy="2.51969360e+01" r="1.0695896898516748" />
      <circle cx="3.63752420e+01" cy="7.72666790e+01" r="1.0695896898516748" />
      <circle cx="5.30140190e+01" cy="4.94400470e+01" r="1.0695896898516748" />
      <circle cx="5.85300380e+01" cy="2.59226600e+01" r="1.0695896898516748" />
      <circle cx="6.28900160e+01" cy="3.40654370e+01" r="1.0695896898516748" />
      <circle cx="6.35415080e+01" cy="4.98037820e+01" r="1.0695896898516748" />
      <circle cx="2.64267500e+01" cy="8.19659210e+01" r="1.0695896898516748" />
      <circle cx="7.16969840e+01" cy="8.31927200e+01" r="1.0695896898516748" />
      <circle cx="4.57997090e+01" cy="4.73543510e+01" r="1.0695896898516748" />
      <circle cx="4.03967750e+01" cy="4.10374760e+01" r="1.0695896898516748" />
      <circle cx="4.41394970e+01" cy="3.25265540e+01" r="1.0695896898516748" />
      <circle cx="6.73713140e+01" cy="4.19342720e+01" r="1.0695896898516748" />
      <circle cx="6.66181940e+01" cy="5.62128530e+01" r="1.0695896898516748" />
      <circle cx="7.14487460e+01" cy="5.76866120e+01" r="1.0695896898516748" />
      <circle cx="3.71777900e+01" cy="5.08228160e+01" r="1.0695896898516748" />
      <circle cx="6.94535990e+01" cy="6.48997160e+01" r="1.0695896898516748" />
      <circle cx="6.71081270e+01" cy="7.18446200e+01" r="1.0695896898516748" />
      <circle cx="4.86249350e+01" cy="8.95422731e+01" r="1.0695896898516748" />
      <circle cx="6.50925680e+01" cy="7.87005140e+01" r="1.0695896898516748" />
      <circle cx="5.30924720e+01" cy="6.71961470e+01" r="1.0695896898516748" />
      <circle cx="6.08346680e+01" cy="6.19251620e+01" r="1.0695896898516748" />
      <circle cx="3.92524520e+01" cy="5.88450290e+01" r="1.0695896898516748" />
      <circle cx="8.63634830e+01" cy="9.17565098e+01" r="1.0695896898516748" />
      <circle cx="5.05672340e+01" cy="7.41856820e+01" r="1.0695896898516748" />
      <circle cx="7.56758300e+01" cy="9.11695829e+01" r="1.0695896898516748" />
      <circle cx="7.61288090e+01" cy="2.09867810e+01" r="1.0695896898516748" />
      <circle cx="6.54683630e+01" cy="2.23986830e+01" r="1.0695896898516748" />
      <circle cx="2.38512650e+01" cy="7.35452780e+01" r="1.0695896898516748" />
      <circle cx="7.34905580e+01" cy="3.09210170e+01" r="1.0695896898516748" />
      <circle cx="3.77427920e+01" cy="8.91666671e+01" r="1.0695896898516748" />
      <circle cx="2.78549330e+01" cy="1.63875020e+01" r="1.0695896898516748" />
      <circle cx="3.52808240e+01" cy="3.09151040e+01" r="1.0695896898516748" />
      <circle cx="4.05950270e+01" cy="3.98681690e+01" r="1.0695896898516748" />
      <circle cx="6.15171020e+01" cy="8.27174210e+01" r="1.0695896898516748" />
      <circle cx="3.76290320e+01" cy="2.26844240e+01" r="1.0695896898516748" />
      <circle cx="5.78280110e+01" cy="8.67608708e+01" r="1.0695896898516748" />
      <circle cx="3.71325290e+01" cy="8.32464320e+01" r="1.0695896898516748" />
      <circle cx="6.04275440e+01" cy="4.18948520e+01" r="1.0695896898516748" />
      <circle cx="5.39710070e+01" cy="9.08257559e+01" r="1.0695896898516748" />
      <circle cx="2.61063950e+01" cy="8.91122450e+01" r="1.0695896898516748" />
      <circle cx="7.52078930e+01" cy="6.97148060e+01" r="1.0695896898516748" />
      <circle cx="6.02549600e+01" cy="7.71872720e+01" r="1.0695896898516748" />
      <circle cx="4.74593540e+01" cy="8.39453270e+01" r="1.0695896898516748" />
      <circle cx="3.36225470e+01" cy="6.96635960e+01" r="1.0695896898516748" />
      <circle cx="5.31558230e+01" cy="3.26276330e+01" r="1.0695896898516748" />
      <circle cx="5.54177570e+01" cy="7.57219100e+01" r="1.0695896898516748" />
      <circle cx="6.84413600e+01" cy="8.70292877e+01" r="1.0695896898516748" />
      <circle cx="3.03051200e+01" cy="6.26497160e+01" r="1.0695896898516748" />
      <circle cx="7.31408180e+01" cy="7.65588650e+01" r="1.0695896898516748" />
      <circle cx="4.98270650e+01" cy="6.06453890e+01" r="1.0695896898516748" />
      <circle cx="5.87663420e+01" cy="5.49784670e+01" r="1.0695896898516748" />
      <circle cx="4.49407850e+01" cy="5.53467470e+01" r="1.0695896898516748" />
      <circle cx="4.66068200e+01" cy="7.81803860e+01" r="1.0695896898516748" />
      <circle cx="7.91125970e+01" cy="8.17276550e+01" r="1.0695896898516748" />
      <circle cx="6.49769630e+01" cy="9.10330124e+01" r="1.0695896898516748" />
      <circle cx="6.54910250e+01" cy="6.30428270e+01" r="1.0695896898516748" />
      <circle cx="6.25046270e+01" cy="7.02072770e+01" r="1.0695896898516748" />
      <circle cx="5.77946570e+01" cy="6.88144010e+01" r="1.0695896898516748" />
      <circle cx="5.26103510e+01" cy="8.53778480e+01" r="1.0695896898516748" />
      <circle cx="5.64643490e+01" cy="8.13027830e+01" r="1.0695896898516748" />
      <circle cx="5.14874390e+01" cy="7.98197630e+01" r="1.0695896898516748" />
   </g>
</svg>