<svg width="100" height="100" version="1.1" xmlns="http://www.w3.org/2000/svg">
   <g id="Elements" fill="#fcff5e" stroke="black" stroke-width="0.4431127970861248">
      <path d="M 5.37279260e+01 7.17279260e+01 Q 5.18912310e+01 7.33388375e+01, 4.99108093e+01 7.46568560e+01 Q 4.78090681e+01 7.56819815e+01, 4.56084147e+01 7.64142140e+01 Q 4.33312562e+01 7.68535535e+01, 4.10000000e+01 7.70000000e+01 Q 4.25337679e+01 8.02140711e+01, 4.40601793e+01 8.32993635e+01 Q 4.55746212e+01 8.62882398e+01, 4.70724807e+01 8.92130629e+01 Q 4.85491446e+01 9.21061954e+01, 5.00000000e+01 9.50000000e+01 Q 5.11960120e+01 8.92824598e+01, 5.18113413e+01 8.59483601e+01 Q 5.21090926e+01 8.37617790e+01, 5.23523707e+01 8.14867943e+01 Q 5.28042802e+01 7.78874840e+01, 5.37279260e+01 7.17279260e+01 Z" />
      <path d="M 5.37279260e+01 7.17279260e+01 Q 5.33361177e+01 7.59225655e+01, 5.27778407e+01 7.99148595e+01 Q 5.21090926e+01 8.37617790e+01, 5.13858713e+01 8.75202949e+01 Q 5.06641745e+01 9.12473783e+01, 5.00000000e+01 9.50000000e+01 Q 5.35221310e+01 9.10405481e+01, 5.70376170e+01 8.70580196e+01 Q 6.05481980e+01 8.30564923e+01, 6.40556140e+01 7.90400438e+01 Q 6.75616050e+01 7.50127518e+01, 7.10679110e+01 7.09786940e+01 Q 6.67571133e+01 7.13624658e+01, 6.42685713e+01 7.15543233e+01 Q 6.26618334e+01 7.16205324e+01, 6.09964477e+01 7.16273587e+01 Q 5.83319625e+01 7.16410680e+01, 5.37279260e+01 7.17279260e+01 Z" />
      <path d="M 9.50000000e+01 9.50000000e+01 L 7.10679110e+01 7.09786940e+01 Q 6.75616050e+01 7.50127518e+01, 6.40556140e+01 7.90400438e+01 Q 6.05481980e+01 8.30564923e+01, 5.70376170e+01 8.70580196e+01 Q 5.35221310e+01 9.10405481e+01, 5.00000000e+01 9.50000000e+01 L 9.50000000e+01 9.50000000e+01 Z" />
      <path d="M 5.00000000e+00 9.50000000e+01 L 5.00000000e+01 9.50000000e+01 Q 4.58815630e+01 9.17494189e+01, 4.16755893e+01 8.85550445e+01 Q 3.74167321e+01 8.53634828e+01, 3.31396447e+01 8.21213393e+01 Q 2.88789802e+01 7.87752198e+01, 2.46693920e+01 7.52717300e+01 L 5.00000000e+00 9.50000000e+01 Z" />
      <path d="M 4.10000000e+01 7.70000000e+01 Q 3.81957322e+01 7.73604031e+01, 3.54109567e+01 7.72938980e+01 Q 3.26558041e+01 7.69261314e+01, 2.99404053e+01 7.63827500e+01 Q 2.72748910e+01 7.57894006e+01, 2.46693920e+01 7.52717300e+01 Q 2.88789802e+01 7.87752198e+01, 3.31396447e+01 8.21213393e+01 Q 3.74167321e+01 8.53634828e+01, 4.16755893e+01 8.85550445e+01 Q 4.58815630e+01 9.17494189e+01, 5.00000000e+01 9.50000000e+01 Q 4.77004346e+01 9.05474044e+01, 4.63935127e+01 8.79660301e+01 Q 4.55746212e+01 8.62882398e+01, 4.47391473e+01 8.45463963e+01 Q 4.33824779e+01 8.17728621e+01, 4.10000000e+01 7.70000000e+01 Z" />
      <path d="M 7.70000000e+01 4.10000000e+01 Q 7.68535535e+01 4.33312562e+01, 7.64142140e+01 4.56084147e+01 Q 7.56819815e+01 4.78090681e+01, 7.46568560e+01 4.99108093e+01 Q 7.33388375e+01 5.18912310e+01, 7.17279260e+01 5.37279260e+01 Q 7.59231758e+01 5.33365452e+01, 7.99155707e+01 5.27782007e+01 Q 8.37622805e+01 5.21091331e+01, 8.75204753e+01 5.13855833e+01 Q 9.12473252e+01 5.06637920e+01, 9.50000000e+01 5.00000000e+01 Q 9.05479992e+01 4.77003602e+01, 8.79668533e+01 4.63933647e+01 Q 8.62890215e+01 4.55744221e+01, 8.45469627e+01 4.47389413e+01 Q 8.17731358e+01 4.33823310e+01, 7.70000000e+01 4.10000000e+01 Z" />
      <path d="M 9.50000000e+01 5.00000000e+01 Q 9.12473252e+01 5.06637920e+01, 8.75204753e+01 5.13855833e+01 Q 8.37622805e+01 5.21091331e+01, 7.99155707e+01 5.27782007e+01 Q 7.59231758e+01 5.33365452e+01, 7.17279260e+01 5.37279260e+01 Q 7.18065435e+01 5.67860944e+01, 7.17770950e+01 5.97410353e+01 Q 7.16640440e+01 6.26152572e+01, 7.14918540e+01 6.54312687e+01 Q 7.12849885e+01 6.82115781e+01, 7.10679110e+01 7.09786940e+01 Q 7.73165652e+01 6.55504173e+01, 8.08828307e+01 6.24463413e+01 Q 8.31005071e+01 6.05028639e+01, 8.53033943e+01 5.85563827e+01 Q 8.88252920e+01 5.54432955e+01, 9.50000000e+01 5.00000000e+01 Z" />
      <path d="M 7.10679110e+01 7.09786940e+01 L 9.50000000e+01 9.50000000e+01 L 9.50000000e+01 5.00000000e+01 Q 8.88252920e+01 5.54432955e+01, 8.53033943e+01 5.85563827e+01 Q 8.31005071e+01 6.05028639e+01, 8.08828307e+01 6.24463413e+01 Q 7.73165652e+01 6.55504173e+01, 7.10679110e+01 7.09786940e+01 Z" />
      <path d="M 7.53340730e+01 2.47318160e+01 Q 7.88258302e+01 2.89314690e+01, 8.21609767e+01 3.31816267e+01 Q 8.53927396e+01 3.74479239e+01, 8.85743463e+01 4.16959953e+01 Q 9.17590240e+01 4.58914758e+01, 9.50000000e+01 5.00000000e+01 L 9.50000000e+01 5.00000000e+00 L 7.53340730e+01 2.47318160e+01 Z" />
      <path d="M 7.53340730e+01 2.47318160e+01 Q 7.58431644e+01 2.73268304e+01, 7.64250860e+01 2.99823513e+01 Q 7.69557841e+01 3.26879037e+01, 7.73112050e+01 3.54330127e+01 Q 7.73672949e+01 3.82072031e+01, 7.70000000e+01 4.10000000e+01 Q 8.02146658e+01 4.25336935e+01, 8.33001867e+01 4.40600313e+01 Q 8.62890215e+01 4.55744221e+01, 8.92136293e+01 4.70722747e+01 Q 9.21064692e+01 4.85489977e+01, 9.50000000e+01 5.00000000e+01 Q 9.01155290e+01 4.34372783e+01, 8.72595503e+01 3.97326373e+01 Q 8.53927396e+01 3.74479239e+01, 8.34757727e+01 3.51449847e+01 Q 8.04693252e+01 3.13856665e+01, 7.53340730e+01 2.47318160e+01 Z" />
      <path d="M 2.30000000e+01 4.10000000e+01 L 2.30000000e+01 2.30000000e+01 L 5.00000000e+00 5.00000000e+01 Q 9.66707390e+00 4.76639533e+01, 1.23336125e+01 4.63261527e+01 Q 1.39998950e+01 4.54887275e+01, 1.56662009e+01 4.46538073e+01 Q 1.83328095e+01 4.33235217e+01, 2.30000000e+01 4.10000000e+01 Z" />
      <path d="M 2.30000000e+01 5.90000000e+01 L 2.30000000e+01 4.10000000e+01 Q 2.00004072e+01 4.24972867e+01, 1.70002791e+01 4.39928193e+01 Q 1.39998950e+01 4.54887275e+01, 1.09995343e+01 4.69871407e+01 Q 7.99947615e+00 4.84901883e+01, 5.00000000e+00 5.00000000e+01 Q 9.65582127e+00 5.23272417e+01, 1.23194441e+01 5.36507593e+01 Q 1.39882709e+01 5.44751735e+01, 1.56597041e+01 5.53051047e+01 Q 1.83311464e+01 5.66451733e+01, 2.30000000e+01 5.90000000e+01 Z" />
      <path d="M 2.30000000e+01 2.30000000e+01 L 4.10000000e+01 2.30000000e+01 Q 4.24972504e+01 2.00004342e+01, 4.39927633e+01 1.70003413e+01 Q 4.54886667e+01 1.39999865e+01, 4.69870887e+01 1.09996347e+01 Q 4.84901571e+01 7.99955083e+00, 5.00000000e+01 5.00000000e+00 L 2.30000000e+01 2.30000000e+01 Z" />
      <path d="M 4.10000000e+01 2.30000000e+01 L 5.90000000e+01 2.30000000e+01 Q 5.74938683e+01 1.99894660e+01, 5.59840127e+01 1.69866153e+01 Q 5.44750655e+01 1.39888456e+01, 5.29716593e+01 1.09935547e+01 Q 5.14784267e+01 7.99814021e+00, 5.00000000e+01 5.00000000e+00 Q 4.76639171e+01 9.66710083e+00, 4.63260967e+01 1.23336747e+01 Q 4.54886667e+01 1.39999865e+01, 4.46537553e+01 1.56663013e+01 Q 4.33234904e+01 1.83328842e+01, 4.10000000e+01 2.30000000e+01 Z" />
      <path d="M 9.50000000e+01 5.00000000e+00 L 5.00000000e+01 5.00000000e+00 Q 5.41236749e+01 8.32929600e+00, 5.83340250e+01 1.15406560e+01 Q 6.25956451e+01 1.47103340e+01, 6.68731300e+01 1.79145840e+01 Q 7.11310744e+01 2.12296600e+01, 7.53340730e+01 2.47318160e+01 L 9.50000000e+01 5.00000000e+00 Z" />
      <path d="M 5.00000000e+00 5.00000000e+00 L 2.30000000e+01 2.30000000e+01 L 5.00000000e+01 5.00000000e+00 L 5.00000000e+00 5.00000000e+00 Z" />
      <path d="M 5.90000000e+01 2.30000000e+01 Q 6.18133307e+01 2.26437752e+01, 6.46028817e+01 2.27124653e+01 Q 6.73591921e+01 2.30808425e+01, 7.00728013e+01 2.36236787e+01 Q 7.27342485e+01 2.42157458e+01, 7.53340730e+01 2.47318160e+01 Q 7.11310744e+01 2.12296600e+01, 6.68731300e+01 1.79145840e+01 Q 6.25956451e+01 1.47103340e+01, 5.83340250e+01 1.15406560e+01 Q 5.41236749e+01 8.32929600e+00, 5.00000000e+01 5.00000000e+00 Q 5.23272017e+01 9.65613271e+00, 5.36506793e+01 1.23199487e+01 Q 5.44750655e+01 1.39888456e+01, 5.53049927e+01 1.56602213e+01 Q 5.66450933e+01 1.83314735e+01, 5.90000000e+01 2.30000000e+01 Z" />
      <path d="M 5.90000000e+01 5.90000000e+01 Q 5.88535535e+01 6.13312562e+01, 5.84142140e+01 6.36084147e+01 Q 5.76819815e+01 6.58090681e+01, 5.66568560e+01 6.79108093e+01 Q 5.53388375e+01 6.98912310e+01, 5.37279260e+01 7.17279260e+01 Q 5.68026775e+01 7.17925805e+01, 5.97730197e+01 7.17485687e+01 Q 6.26618334e+01 7.16205324e+01, 6.54919993e+01 7.14331133e+01 Q 6.82863983e+01 7.12109533e+01, 7.10679110e+01 7.09786940e+01 L 5.90000000e+01 5.90000000e+01 Z" />
      <path d="M 7.17279260e+01 5.37279260e+01 Q 6.98912310e+01 5.53388375e+01, 6.79108093e+01 5.66568560e+01 Q 6.58090681e+01 5.76819815e+01, 6.36084147e+01 5.84142140e+01 Q 6.13312562e+01 5.88535535e+01, 5.90000000e+01 5.90000000e+01 L 7.10679110e+01 7.09786940e+01 Q 7.14276460e+01 6.66893131e+01, 7.16059800e+01 6.42134567e+01 Q 7.16640440e+01 6.26152573e+01, 7.16629690e+01 6.09588473e+01 Q 7.16638860e+01 5.83083594e+01, 7.17279260e+01 5.37279260e+01 Z" />
      <path d="M 2.46693920e+01 7.52717300e+01 Q 2.11793079e+01 7.10785675e+01, 1.78752814e+01 6.68310660e+01 Q 1.46813249e+01 6.25643420e+01, 1.15214508e+01 5.83135120e+01 Q 8.31967169e+00 5.41136925e+01, 5.00000000e+00 5.00000000e+01 L 5.00000000e+00 9.50000000e+01 L 2.46693920e+01 7.52717300e+01 Z" />
      <path d="M 2.30000000e+01 2.30000000e+01 L 5.00000000e+00 5.00000000e+00 L 5.00000000e+00 5.00000000e+01 L 2.30000000e+01 2.30000000e+01 Z" />
      <path d="M 2.46693920e+01 7.52717300e+01 Q 2.41620196e+01 7.26823885e+01, 2.35814507e+01 7.00309593e+01 Q 2.30513247e+01 6.73272241e+01, 2.26952813e+01 6.45809647e+01 Q 2.26369599e+01 6.18019627e+01, 2.30000000e+01 5.90000000e+01 Q 1.99891546e+01 5.74939083e+01, 1.69861107e+01 5.59840927e+01 Q 1.39882709e+01 5.44751735e+01, 1.09930375e+01 5.29717713e+01 Q 7.99781302e+00 5.14785067e+01, 5.00000000e+00 5.00000000e+01 Q 9.88761994e+00 5.65707225e+01, 1.27758094e+01 6.02791360e+01 Q 1.46813249e+01 6.25643420e+01, 1.66209228e+01 6.48654420e+01 Q 1.96113597e+01 6.86215375e+01, 2.46693920e+01 7.52717300e+01 Z" />
      <path d="M 7.53340730e+01 2.47318160e+01 L 7.17279260e+01 2.82720740e+01 Q 7.33388375e+01 3.01087690e+01, 7.46568560e+01 3.20891907e+01 Q 7.56819815e+01 3.41909319e+01, 7.64142140e+01 3.63915853e+01 Q 7.68535535e+01 3.86687438e+01, 7.70000000e+01 4.10000000e+01 Q 7.67995299e+01 3.66659731e+01, 7.68569930e+01 3.42000287e+01 Q 7.69557841e+01 3.26879037e+01, 7.68792980e+01 3.12153353e+01 Q 7.64109294e+01 2.88680604e+01, 7.53340730e+01 2.47318160e+01 Z" />
      <path d="M 5.90000000e+01 2.30000000e+01 Q 6.13312562e+01 2.31464465e+01, 6.36084147e+01 2.35857860e+01 Q 6.58090681e+01 2.43180185e+01, 6.79108093e+01 2.53431440e+01 Q 6.98912310e+01 2.66611625e+01, 7.17279260e+01 2.82720740e+01 L 7.53340730e+01 2.47318160e+01 Q 7.11902985e+01 2.36379658e+01, 6.88376413e+01 2.31614547e+01 Q 6.73591921e+01 2.30808425e+01, 6.58380417e+01 2.31746893e+01 Q 6.33572807e+01 2.32215552e+01, 5.90000000e+01 2.30000000e+01 Z" />
      <path d="M 2.46693920e+01 7.52717300e+01 L 2.82720740e+01 7.17279260e+01 Q 2.66611625e+01 6.98912310e+01, 2.53431440e+01 6.79108093e+01 Q 2.43180185e+01 6.58090681e+01, 2.35857860e+01 6.36084147e+01 Q 2.31464465e+01 6.13312562e+01, 2.30000000e+01 5.90000000e+01 Q 2.32036649e+01 6.33412102e+01, 2.31486453e+01 6.58123627e+01 Q 2.30513247e+01 6.73272241e+01, 2.31280867e+01 6.87995613e+01 Q 2.35953146e+01 7.11431410e+01, 2.46693920e+01 7.52717300e+01 Z" />
      <path d="M 4.10000000e+01 7.70000000e+01 Q 3.86687438e+01 7.68535535e+01, 3.63915853e+01 7.64142140e+01 Q 3.41909319e+01 7.56819815e+01, 3.20891907e+01 7.46568560e+01 Q 3.01087690e+01 7.33388375e+01, 2.82720740e+01 7.17279260e+01 L 2.46693920e+01 7.52717300e+01 Q 2.88207535e+01 7.63682481e+01, 3.11770953e+01 7.68458280e+01 Q 3.26558041e+01 7.69261314e+01, 3.41742667e+01 7.68308200e+01 Q 3.66498697e+01 7.67815556e+01, 4.10000000e+01 7.70000000e+01 Z" />
   </g>
   <g id="Nodes" fill="#a95e5e">
      <circle cx="2.00000030e+01" cy="9.50000000e+01" r="0.8862255941722496" />
      <circle cx="3.49999970e+01" cy="9.50000000e+01" r="0.8862255941722496" />
      <circle cx="5.00000000e+01" cy="9.50000000e+01" r="0.8862255941722496" />
      <circle cx="6.50000030e+01" cy="9.50000000e+01" r="0.8862255941722496" />
      <circle cx="7.99999970e+01" cy="9.50000000e+01" r="0.8862255941722496" />
      <circle cx="9.50000000e+01" cy="7.99999970e+01" r="0.8862255941722496" />
      <circle cx="9.50000000e+01" cy="6.50000030e+01" r="0.8862255941722496" />
      <circle cx="9.50000000e+01" cy="5.00000000e+01" r="0.8862255941722496" />
      <circle cx="9.50000000e+01" cy="3.49999970e+01" r="0.8862255941722496" />
      <circle cx="9.50000000e+01" cy="2.00000030e+01" r="0.8862255941722496" />
      <circle cx="2.30000000e+01" cy="2.90000030e+01" r="0.8862255941722496" />
      <circle cx="2.30000000e+01" cy="3.49999970e+01" r="0.8862255941722496" />
      <circle cx="2.30000000e+01" cy="4.10000000e+01" r="0.8862255941722496" />
      <circle cx="2.30000000e+01" cy="4.70000030e+01" r="0.8862255941722496" />
      <circle cx="2.30000000e+01" cy="5.29999970e+01" r="0.8862255941722496" />
      <circle cx="7.99999970e+01" cy="5.00000000e+00" r="0.8862255941722496" />
      <circle cx="6.50000030e+01" cy="5.00000000e+00" r="0.8862255941722496" />
      <circle cx="5.00000000e+01" cy="5.00000000e+00" r="0.8862255941722496" />
      <circle cx="3.49999970e+01" cy="5.00000000e+00" r="0.8862255941722496" />
      <circle cx="2.00000030e+01" cy="5.00000000e+00" r="0.8862255941722496" />
      <circle cx="4.57016720e+01" cy="7.70000000e+01" r="0.8862255941722496" />
      <circle cx="5.02132010e+01" cy="7.52426420e+01" r="0.8862255941722496" />
      <circle cx="5.37279260e+01" cy="7.17279260e+01" r="0.8862255941722496" />
      <circle cx="5.72426420e+01" cy="6.82132010e+01" r="0.8862255941722496" />
      <circle cx="5.90000000e+01" cy="6.37016720e+01" r="0.8862255941722496" />
      <circle cx="6.37016720e+01" cy="5.90000000e+01" r="0.8862255941722496" />
      <circle cx="6.82132010e+01" cy="5.72426420e+01" r="0.8862255941722496" />
      <circle cx="7.17279260e+01" cy="5.37279260e+01" r="0.8862255941722496" />
      <circle cx="7.52426420e+01" cy="5.02132010e+01" r="0.8862255941722496" />
      <circle cx="7.70000000e+01" cy="4.57016720e+01" r="0.8862255941722496" />
      <circle cx="5.00000000e+00" cy="2.00000030e+01" r="0.8862255941722496" />
      <circle cx="5.00000000e+00" cy="3.49999970e+01" r="0.8862255941722496" />
      <circle cx="5.00000000e+00" cy="5.00000000e+01" r="0.8862255941722496" />
      <circle cx="5.00000000e+00" cy="6.50000030e+01" r="0.8862255941722496" />
      <circle cx="5.00000000e+00" cy="7.99999970e+01" r="0.8862255941722496" />
      <circle cx="7.70000000e+01" cy="3.62983280e+01" r="0.8862255941722496" />
      <circle cx="7.52426420e+01" cy="3.17867990e+01" r="0.8862255941722496" />
      <circle cx="7.17279260e+01" cy="2.82720740e+01" r="0.8862255941722496" />
      <circle cx="6.82132010e+01" cy="2.47573580e+01" r="0.8862255941722496" />
      <circle cx="6.37016720e+01" cy="2.30000000e+01" r="0.8862255941722496" />
      <circle cx="5.29999970e+01" cy="2.30000000e+01" r="0.8862255941722496" />
      <circle cx="4.70000030e+01" cy="2.30000000e+01" r="0.8862255941722496" />
      <circle cx="4.10000000e+01" cy="2.30000000e+01" r="0.8862255941722496" />
      <circle cx="3.49999970e+01" cy="2.30000000e+01" r="0.8862255941722496" />
      <circle cx="2.90000030e+01" cy="2.30000000e+01" r="0.8862255941722496" />
      <circle cx="2.30000000e+01" cy="6.37016720e+01" r="0.8862255941722496" />
      <circle cx="2.47573580e+01" cy="6.82132010e+01" r="0.8862255941722496" />
      <circle cx="2.82720740e+01" cy="7.17279260e+01" r="0.8862255941722496" />
      <circle cx="3.17867990e+01" cy="7.52426420e+01" r="0.8862255941722496" />
      <circle cx="3.62983280e+01" cy="7.70000000e+01" r="0.8862255941722496" />
      <circle cx="9.50000000e+01" cy="9.50000000e+01" r="0.8862255941722496" />
      <circle cx="9.50000000e+01" cy="5.00000000e+00" r="0.8862255941722496" />
      <circle cx="5.00000000e+00" cy="9.50000000e+01" r="0.8862255941722496" />
      <circle cx="5.00000000e+00" cy="5.00000000e+00" r="0.8862255941722496" />
      <circle cx="2.30000000e+01" cy="2.30000000e+01" r="0.8862255941722496" />
      <circle cx="2.30000000e+01" cy="5.90000000e+01" r="0.8862255941722496" />
      <circle cx="4.10000000e+01" cy="7.70000000e+01" r="0.8862255941722496" />
      <circle cx="5.90000000e+01" cy="5.90000000e+01" r="0.8862255941722496" />
      <circle cx="7.70000000e+01" cy="4.10000000e+01" r="0.8862255941722496" />
      <circle cx="5.90000000e+01" cy="2.30000000e+01" r="0.8862255941722496" />
      <circle cx="7.10679110e+01" cy="7.09786940e+01" r="0.8862255941722496" />
      <circle cx="4.39976570e+01" cy="1.70015720e+01" r="0.8862255941722496" />
      <circle cx="8.35801160e+01" cy="4.40716820e+01" r="0.8862255941722496" />
      <circle cx="8.71368080e+01" cy="5.70222050e+01" r="0.8862255941722496" />
      <circle cx="5.59945490e+01" cy="1.69695140e+01" r="0.8862255941722496" />
      <circle cx="2.46693920e+01" cy="7.52717300e+01" r="0.8862255941722496" />
      <circle cx="3.20035370e+01" cy="1.70019050e+01" r="0.8862255941722496" />
      <circle cx="6.70066250e+01" cy="1.74895880e+01" r="0.8862255941722496" />
      <circle cx="6.55025180e+01" cy="7.14368840e+01" r="0.8862255941722496" />
      <circle cx="5.31481100e+01" cy="8.03575310e+01" r="0.8862255941722496" />
      <circle cx="4.18737650e+01" cy="8.84070347e+01" r="0.8862255941722496" />
      <circle cx="5.70520670e+01" cy="8.71068911e+01" r="0.8862255941722496" />
      <circle cx="8.84262650e+01" cy="4.18928180e+01" r="0.8862255941722496" />
      <circle cx="4.69721210e+01" cy="1.09983920e+01" r="0.8862255941722496" />
      <circle cx="1.09981841e+01" cy="4.69721930e+01" r="0.8862255941722496" />
      <circle cx="5.29389590e+01" cy="1.10007410e+01" r="0.8862255941722496" />
      <circle cx="3.30143900e+01" cy="8.24716760e+01" r="0.8862255941722496" />
      <circle cx="5.81370710e+01" cy="1.18273640e+01" r="0.8862255941722496" />
      <circle cx="5.99970920e+01" cy="7.19823290e+01" r="0.8862255941722496" />
      <circle cx="8.74307120e+01" cy="5.12320910e+01" r="0.8862255941722496" />
      <circle cx="4.09837550e+01" cy="1.09975640e+01" r="0.8862255941722496" />
      <circle cx="7.53340730e+01" cy="2.47318160e+01" r="0.8862255941722496" />
      <circle cx="7.20095360e+01" cy="5.99624960e+01" r="0.8862255941722496" />
      <circle cx="8.91906080e+01" cy="4.71267770e+01" r="0.8862255941722496" />
      <circle cx="4.71271730e+01" cy="8.91901436e+01" r="0.8862255941722496" />
      <circle cx="4.40718170e+01" cy="8.35784960e+01" r="0.8862255941722496" />
      <circle cx="6.40538240e+01" cy="7.90508570e+01" r="0.8862255941722496" />
      <circle cx="8.03593940e+01" cy="5.31496220e+01" r="0.8862255941722496" />
      <circle cx="5.12334950e+01" cy="8.74312376e+01" r="0.8862255941722496" />
      <circle cx="7.91085740e+01" cy="6.39925340e+01" r="0.8862255941722496" />
      <circle cx="8.25096830e+01" cy="3.30577070e+01" r="0.8862255941722496" />
      <circle cx="1.70015360e+01" cy="4.39977470e+01" r="0.8862255941722496" />
      <circle cx="1.09999598e+01" cy="1.09999670e+01" r="0.8862255941722496" />
      <circle cx="1.70019320e+01" cy="3.20035460e+01" r="0.8862255941722496" />
      <circle cx="2.58090710e+01" cy="7.41556670e+01" r="0.8862255941722496" />
      <circle cx="1.69687760e+01" cy="5.59946210e+01" r="0.8862255941722496" />
      <circle cx="1.82097410e+01" cy="8.17479860e+01" r="0.8862255941722496" />
      <circle cx="1.69994750e+01" cy="1.69994750e+01" r="0.8862255941722496" />
      <circle cx="8.69209700e+01" cy="8.68912655e+01" r="0.8862255941722496" />
      <circle cx="2.17701320e+01" cy="6.46203650e+01" r="0.8862255941722496" />
      <circle cx="1.74525080e+01" cy="6.69631550e+01" r="0.8862255941722496" />
      <circle cx="8.17879550e+01" cy="1.82497640e+01" r="0.8862255941722496" />
      <circle cx="1.09974767e+01" cy="4.09837910e+01" r="0.8862255941722496" />
      <circle cx="3.53787260e+01" cy="7.82314790e+01" r="0.8862255941722496" />
      <circle cx="6.39319100e+01" cy="6.39086450e+01" r="0.8862255941722496" />
      <circle cx="1.16452940e+01" cy="8.83419089e+01" r="0.8862255941722496" />
      <circle cx="7.82406770e+01" cy="3.54027830e+01" r="0.8862255941722496" />
      <circle cx="6.72598400e+01" cy="6.71986400e+01" r="0.8862255941722496" />
      <circle cx="7.14959690e+01" cy="6.54426500e+01" r="0.8862255941722496" />
      <circle cx="1.18078943e+01" cy="5.81178470e+01" r="0.8862255941722496" />
      <circle cx="7.41978770e+01" cy="2.58512900e+01" r="0.8862255941722496" />
      <circle cx="7.89313190e+01" cy="7.88719640e+01" r="0.8862255941722496" />
      <circle cx="7.30111370e+01" cy="2.70155660e+01" r="0.8862255941722496" />
      <circle cx="8.83620590e+01" cy="1.16653730e+01" r="0.8862255941722496" />
      <circle cx="2.38102700e+01" cy="7.01616560e+01" r="0.8862255941722496" />
      <circle cx="2.98136210e+01" cy="7.61476280e+01" r="0.8862255941722496" />
      <circle cx="7.61967230e+01" cy="2.98543550e+01" r="0.8862255941722496" />
      <circle cx="6.46441340e+01" cy="2.17791500e+01" r="0.8862255941722496" />
      <circle cx="7.02023540e+01" cy="2.38591580e+01" r="0.8862255941722496" />
      <circle cx="1.09999463e+01" cy="5.29391750e+01" r="0.8862255941722496" />
      <circle cx="2.69941100e+01" cy="7.29896810e+01" r="0.8862255941722496" />
      <circle cx="7.91715470e+01" cy="5.81944280e+01" r="0.8862255941722496" />
      <circle cx="8.70353600e+01" cy="7.20496940e+01" r="0.8862255941722496" />
      <circle cx="8.25046520e+01" cy="3.88064300e+01" r="0.8862255941722496" />
      <circle cx="5.00006480e+01" cy="1.70097980e+01" r="0.8862255941722496" />
      <circle cx="2.60029580e+01" cy="1.10003720e+01" r="0.8862255941722496" />
      <circle cx="3.87851270e+01" cy="8.24907470e+01" r="0.8862255941722496" />
      <circle cx="7.36410740e+01" cy="1.13831150e+01" r="0.8862255941722496" />
      <circle cx="2.63399630e+01" cy="8.85219044e+01" r="0.8862255941722496" />
      <circle cx="5.82216440e+01" cy="7.91405600e+01" r="0.8862255941722496" />
      <circle cx="7.20798890e+01" cy="8.70065933e+01" r="0.8862255941722496" />
      <circle cx="8.10679100e+01" cy="4.82263700e+01" r="0.8862255941722496" />
      <circle cx="8.85420770e+01" cy="2.63612660e+01" r="0.8862255941722496" />
      <circle cx="4.82262980e+01" cy="8.10681980e+01" r="0.8862255941722496" />
      <circle cx="1.70098520e+01" cy="5.00008460e+01" r="0.8862255941722496" />
      <circle cx="1.70011400e+01" cy="3.80043320e+01" r="0.8862255941722496" />
      <circle cx="3.80043140e+01" cy="1.70010680e+01" r="0.8862255941722496" />
      <circle cx="6.91511270e+01" cy="2.45758100e+01" r="0.8862255941722496" />
      <circle cx="6.74598470e+01" cy="6.12292550e+01" r="0.8862255941722496" />
      <circle cx="6.11809070e+01" cy="1.75046450e+01" r="0.8862255941722496" />
      <circle cx="3.08561900e+01" cy="7.54270610e+01" r="0.8862255941722496" />
      <circle cx="2.45496650e+01" cy="6.91335950e+01" r="0.8862255941722496" />
      <circle cx="6.12545720e+01" cy="6.74292200e+01" r="0.8862255941722496" />
      <circle cx="1.13627435e+01" cy="7.36197710e+01" r="0.8862255941722496" />
      <circle cx="1.74917030e+01" cy="6.11595050e+01" r="0.8862255941722496" />
      <circle cx="1.10004116e+01" cy="2.60029490e+01" r="0.8862255941722496" />
      <circle cx="7.54533140e+01" cy="3.08736950e+01" r="0.8862255941722496" />
   </g>
</svg>